<svg id="Layer_1" data-name="Layer 1" xmlns="http://www.w3.org/2000/svg" viewBox="0 0 30 30"><defs><style>.cls-1{fill:#44c8f5;stroke:#44c8f5;stroke-miterlimit:10;stroke-width:0.6px;}</style></defs><title>map-blue</title><path class="cls-1" d="M4.6,8H7.44V7.09H4.56V8Zm4.1,15.11a.41.41,0,1,0-.41-.41A.39.39,0,0,0,8.69,23.07Zm17.22-9.38H21.8V12.13H26a.84.84,0,0,0,.84-.84V3.93A.84.84,0,0,0,26,3.09H14.72a.84.84,0,0,0-.84.84v7.36a.84.84,0,0,0,.84.84h4v1.56H9.24V2.6a.55.55,0,0,0-.55-.55H3.35a.55.55,0,0,0-.55.55V14l1-.31a1.76,1.76,0,1,0,0,3.52L2.8,17V27.86h.91V25h11V17.21H26V27.88h.88v-11l-.94.34a1.77,1.77,0,0,0,1.77-2A1.83,1.83,0,0,0,25.91,13.69ZM14.76,10.41V4.81A.84.84,0,0,1,15.6,4h9.59a.84.84,0,0,1,.84.84v5.6a.84.84,0,0,1-.84.84H15.6A.84.84,0,0,1,14.76,10.41Zm6.16,1.72v1.56H19.6V12.13ZM4.26,2.93H7.81a.55.55,0,0,1,.55.55V13.69H3.72V3.48A.55.55,0,0,1,4.26,2.93Zm9.61,21.16H3.72V21.21H13.88Zm0-3.76H3.72V17.25H13.88Zm12.1-4H3.8a.88.88,0,1,1,0-1.76H25.95a.88.88,0,0,1,.91.88A.85.85,0,0,1,26,16.33ZM4.6,6.14H7.44V5.26H4.56v.88Zm4.1,13a.41.41,0,1,0-.41-.41A.39.39,0,0,0,8.69,19.11Z"/></svg>