<svg id="Layer_1" data-name="Layer 1" xmlns="http://www.w3.org/2000/svg" viewBox="0 0 30 30"><defs><style>.cls-1{fill:#44c8f5;}</style></defs><title>map-blue</title><path class="cls-1" d="M24.72,9.52A4.36,4.36,0,0,0,25.25,9a4.31,4.31,0,0,0-.52-6.12,4.41,4.41,0,0,0-6.18.52,4.31,4.31,0,0,0,.52,6.12,6,6,0,0,0-1.46,1.06h0v0l-.21-.14-.06,0A4.3,4.3,0,0,0,14,9.72l-.1,0a4.28,4.28,0,0,0-.57.17,4.4,4.4,0,0,0-.45.2l-.06,0a4.42,4.42,0,0,0-.6.37,6,6,0,0,0-1.5-1.09,4.31,4.31,0,0,0,.52-6.12,4.41,4.41,0,0,0-6.18-.52,4.31,4.31,0,0,0-.52,6.12,4.36,4.36,0,0,0,.52.52,6.07,6.07,0,0,0-3.31,5.39v2.6A.86.86,0,0,0,2,18l.62.61v.72a.87.87,0,0,0,.88.87H8.79v2c0,.17,0,.35,0,.52v2.6a.86.86,0,0,0,.26.61l.62.61v.71a.87.87,0,0,0,.88.87h8.77a.87.87,0,0,0,.82-.58.84.84,0,0,0,.1-.38v-.66l.58-.58a1.3,1.3,0,0,0,.29-.7v-2.6c0-.18,0-.35,0-.52V20.33h5.26a.87.87,0,0,0,.88-.87v-.72l.62-.61a.86.86,0,0,0,.26-.61v-2.6A6.07,6.07,0,0,0,24.72,9.52ZM21.9,3.63a2.6,2.6,0,1,1-2.63,2.6A2.62,2.62,0,0,1,21.9,3.63ZM18.69,25.5a1.3,1.3,0,0,0-.29.7v.12h-7v-.21a.86.86,0,0,0-.26-.61l-.62-.61V22.64A4.28,4.28,0,0,1,10.87,21a4.37,4.37,0,0,1,3.78-2.59l.24,0,.24,0a4.35,4.35,0,0,1,4.14,4.32v2.19Zm-3.8-14.06A2.62,2.62,0,0,1,17.52,14a2.57,2.57,0,0,1-.19,1,2.63,2.63,0,0,1-5-1.05,2.57,2.57,0,0,1,.19-1A2.63,2.63,0,0,1,14.89,11.44Zm-7-7.9a2.6,2.6,0,1,1-2.63,2.6A2.62,2.62,0,0,1,7.91,3.54ZM4.4,18.5V18.3a.86.86,0,0,0-.26-.61l-.62-.61V14.82A4.39,4.39,0,0,1,11,11.75l.06.07a4.29,4.29,0,0,0,.87,5.49,4.58,4.58,0,0,0-1.84,1.2Zm21.88-1.35-.62.61a.86.86,0,0,0-.26.61v.21h-5.7a4.8,4.8,0,0,0-1.48-1.05l-.4-.24a4.28,4.28,0,0,0,.91-5.4l.06-.06a4.39,4.39,0,0,1,7.48,3.07Z"/></svg>