<svg id="Layer_1" data-name="Layer 1" xmlns="http://www.w3.org/2000/svg" viewBox="0 0 30 30"><defs><style>.cls-1{fill:#44c8f5;}.cls-2,.cls-3{fill:none;stroke:#44c8f5;stroke-miterlimit:10;stroke-width:1.5px;}.cls-3{stroke-linecap:round;}</style></defs><title>map-blue</title><path class="cls-1" d="M14.83,19.26A4.19,4.19,0,0,0,17,18.64a3.49,3.49,0,0,0,.91-.76c.26-.34.17-.65.18-1.07,0-.75.17-1.49.24-2.24a3,3,0,0,0-.87-2.76,4.19,4.19,0,0,0-6.07.81c-.35.49-.83,1.24-.59,1.82a5.76,5.76,0,0,1,.62,2.5C11.41,18.48,13.54,19.26,14.83,19.26Zm0-7a2.8,2.8,0,1,1-2.8,2.8A2.81,2.81,0,0,1,14.83,12.25Z"/><path class="cls-1" d="M22.88,24.9A5,5,0,0,0,18.3,20l-.32,0-.21.21a4.23,4.23,0,0,1-5.88,0l-.21-.21h-.32a5,5,0,0,0-4.59,5V28H22.88Zm-1.4,1.68H8.18V24.9a3.54,3.54,0,0,1,3-3.5,5.68,5.68,0,0,0,3.64,1.33,5.53,5.53,0,0,0,3.64-1.37,3.57,3.57,0,0,1,3,3.5Z"/><path class="cls-1" d="M24.11,16.46a3.51,3.51,0,0,0-3.5-3.5c-1.27,0-2.48.6-2.53,2a4,4,0,0,1-.16,1.47c-.17.39-.7.86-.62,1.33A3,3,0,0,0,18,18.83a3.5,3.5,0,0,0,6.07-2.37Zm-5.6,0a2.1,2.1,0,1,1,2.1,2.1A2.11,2.11,0,0,1,18.51,16.46Z"/><path class="cls-1" d="M24.39,19.81h-.67l-.21.21A3,3,0,0,1,21,21.13l.66,1.24a3.85,3.85,0,0,0,2.68-1.16h.07a2.11,2.11,0,0,1,2.1,2.1v1.05h-4.9v1.4h6.3V23.31A3.51,3.51,0,0,0,24.39,19.81Z"/><path class="cls-1" d="M5.48,16.46a3.5,3.5,0,0,0,6,2.42,3.43,3.43,0,0,0,.74-1.16c.2-.53-.13-.8-.37-1.27A4.31,4.31,0,0,1,11.58,15,2.37,2.37,0,0,0,9,13,3.51,3.51,0,0,0,5.48,16.46ZM9,14.36a2.1,2.1,0,1,1-2.1,2.1A2.11,2.11,0,0,1,9,14.36Z"/><path class="cls-1" d="M8,24.36H3.06V23.31a2.11,2.11,0,0,1,2.1-2.1h.07A4,4,0,0,0,8,22.37l.75-1.19A3.53,3.53,0,0,1,6,20l-.21-.21H5.16a3.51,3.51,0,0,0-3.5,3.5v2.45H8Z"/><path class="cls-2" d="M8,13.68V3.47a.91.91,0,0,1,.91-.91h6.94a.91.91,0,0,1,.91.91V12"/><path class="cls-2" d="M18.77,14.51V8.38c0-.3.18-.55.4-.55h3c.22,0,.4.24.4.55v6.17"/><line class="cls-3" x1="10.15" y1="5.08" x2="14.54" y2="5.08"/><line class="cls-3" x1="10.15" y1="7.53" x2="14.54" y2="7.53"/><line class="cls-3" x1="10.15" y1="9.6" x2="14.54" y2="9.6"/><line class="cls-3" x1="10.15" y1="11.8" x2="13.41" y2="11.8"/></svg>