<svg id="Layer_1" data-name="Layer 1" xmlns="http://www.w3.org/2000/svg" viewBox="0 0 30 30"><defs><style>.cls-1,.cls-2,.cls-3{fill:#44c8f5;stroke:#44c8f5;stroke-miterlimit:10;}.cls-1{stroke-width:0.54px;}.cls-2{stroke-width:0.6px;}.cls-3{stroke-width:0.59px;}</style></defs><title>map-blue</title><rect class="cls-1" x="4.55" y="17.94" width="1.22" height="0.82"/><rect class="cls-1" x="6.71" y="17.94" width="1.22" height="0.82"/><rect class="cls-1" x="4.55" y="19.86" width="1.22" height="0.82"/><rect class="cls-1" x="6.71" y="19.86" width="1.22" height="0.82"/><rect class="cls-1" x="4.55" y="21.79" width="1.22" height="0.82"/><rect class="cls-1" x="6.71" y="21.79" width="1.22" height="0.82"/><rect class="cls-1" x="4.55" y="23.66" width="1.22" height="0.82"/><rect class="cls-1" x="6.71" y="23.66" width="1.22" height="0.82"/><rect class="cls-1" x="4.55" y="25.5" width="1.22" height="0.82"/><rect class="cls-1" x="6.71" y="25.5" width="1.22" height="0.82"/><rect class="cls-1" x="23.35" y="10.7" width="1.22" height="0.82"/><rect class="cls-1" x="23.35" y="12.62" width="1.22" height="0.82"/><rect class="cls-1" x="23.35" y="14.55" width="1.22" height="0.82"/><rect class="cls-1" x="23.35" y="16.42" width="1.22" height="0.82"/><rect class="cls-1" x="23.35" y="18.26" width="1.22" height="0.82"/><rect class="cls-1" x="23.35" y="20.09" width="1.22" height="0.82"/><rect class="cls-1" x="23.35" y="21.96" width="1.22" height="0.82"/><rect class="cls-1" x="23.35" y="23.8" width="1.22" height="0.82"/><rect class="cls-1" x="23.35" y="25.67" width="1.22" height="0.82"/><rect class="cls-2" x="11.09" y="12.83" width="5.48" height="0.92"/><rect class="cls-2" x="11.06" y="14.89" width="5.48" height="0.92"/><rect class="cls-2" x="11.06" y="17.02" width="5.48" height="0.92"/><rect class="cls-2" x="11.06" y="18.94" width="5.48" height="0.92"/><rect class="cls-2" x="11.06" y="20.9" width="5.48" height="0.92"/><rect class="cls-2" x="11.06" y="22.97" width="5.48" height="0.92"/><rect class="cls-2" x="11.06" y="25.04" width="5.48" height="0.92"/><rect class="cls-2" x="11.95" y="8.94" width="3.7" height="0.92"/><rect class="cls-2" x="11.95" y="6.88" width="3.7" height="0.92"/><path class="cls-3" d="M26.74,26.86V8.58H21.2V26.86H18.68V8.92h-.86V2.25A.31.31,0,0,0,17.38,2l-7,3.3a.71.71,0,0,0-.41.64v3H9.11v6.69H2.85V26.86H1.94v.91H27.83v-.91Zm-17.65,0H3.71V16.52H9.1Zm8.72,0H10v-17h.86V6.51a.71.71,0,0,1,.41-.64l5.28-2.49a.31.31,0,0,1,.44.28V9.82h.86Zm8.06,0H22.06V9.49h3.82Z"/></svg>