<svg id="Layer_1" data-name="Layer 1" xmlns="http://www.w3.org/2000/svg" viewBox="0 0 30 30"><defs><style>.cls-1,.cls-2,.cls-3{fill:#44c8f5;stroke:#44c8f5;stroke-miterlimit:10;}.cls-1{stroke-width:0.73px;}.cls-2{stroke-width:0.7px;}.cls-3{stroke-width:0.57px;}</style></defs><title>map-blue</title><path class="cls-1" d="M26.89,19.75a2.06,2.06,0,0,0-1.83-.33l-5.74,1.7a2,2,0,0,0-2-2.44H14.46a2.27,2.27,0,0,1-1.73-.5,3.62,3.62,0,0,0-2.42-.8,9.22,9.22,0,0,0-3.6.5v-.66a1.07,1.07,0,0,0-1.08-1.08H3a1.07,1.07,0,0,0-1.08,1.08v9.35A1.07,1.07,0,0,0,3,27.64H5.62A1.07,1.07,0,0,0,6.7,26.56v-.78c1.83.51,7,1.86,9.6,1.86s8.14-3.1,10.4-4.43a2.08,2.08,0,0,0,1-1.79A2.05,2.05,0,0,0,26.89,19.75ZM5.66,26.56a0,0,0,0,1,0,0H3a0,0,0,0,1,0,0V17.22a0,0,0,0,1,0,0H5.62a0,0,0,0,1,0,0Zm20.52-4.25c-1.71,1-7.45,4.3-9.87,4.3-2.59,0-8.13-1.49-9.6-1.9V19a7.77,7.77,0,0,1,3.55-.57A2.73,2.73,0,0,1,12.1,19a3.25,3.25,0,0,0,2.36.71h2.91a1,1,0,0,1,0,1.94H10.83a.52.52,0,0,0,0,1h6.53a1.87,1.87,0,0,0,.49-.07h0l7.47-2.2a1,1,0,0,1,1.34,1A1.05,1.05,0,0,1,26.18,22.32Z"/><path class="cls-2" d="M20.51,6.06a3.82,3.82,0,0,0-3.27-.72,3.73,3.73,0,0,0-2.76,2.74,3.79,3.79,0,0,0,1.37,4,.47.47,0,0,1,.15.36v2a.76.76,0,0,0,.76.76h.47a1,1,0,0,0,.94.69,1,1,0,0,0,.94-.69h.47a.76.76,0,0,0,.76-.76V12.4a.42.42,0,0,1,.13-.33,3.79,3.79,0,0,0,1.5-3A3.9,3.9,0,0,0,20.51,6.06ZM19.4,14.29H16.9V13H19.4Zm.49-3a1,1,0,0,0-.5.9v.12H16.9v-.1a1.1,1.1,0,0,0-.5-.93,2.9,2.9,0,0,1-1-3,2.83,2.83,0,0,1,2.09-2.06,2.91,2.91,0,0,1,2.49.54A2.86,2.86,0,0,1,21,9,2.91,2.91,0,0,1,19.89,11.34Z"/><path class="cls-2" d="M18.15,4.32a.46.46,0,0,0,.46-.46V2.41a.46.46,0,1,0-.92,0V3.86A.46.46,0,0,0,18.15,4.32Z"/><path class="cls-2" d="M14.84,5.69a.47.47,0,0,0,0-.66l-1-1a.46.46,0,0,0-.65,0,.47.47,0,0,0,0,.66l1,1a.46.46,0,0,0,.65,0Z"/><path class="cls-2" d="M13,8.57H11.56a.46.46,0,0,0,0,.92H13a.46.46,0,0,0,0-.92Z"/><path class="cls-2" d="M24.74,8.57H23.3a.46.46,0,0,0,0,.92h1.44a.46.46,0,0,0,0-.92Z"/><path class="cls-2" d="M23.14,4a.46.46,0,0,0-.65,0l-1,1a.47.47,0,0,0,0,.66.46.46,0,0,0,.65,0l1-1A.47.47,0,0,0,23.14,4Z"/><path class="cls-3" d="M18.63,8.4l-.88.88-.37-.37a.37.37,0,0,0-.54,0,.37.37,0,0,0,0,.54l.65.65a.38.38,0,0,0,.28.11.42.42,0,0,0,.28-.11L19.2,8.95a.37.37,0,0,0,0-.54A.42.42,0,0,0,18.63,8.4Z"/></svg>